HIERARCHY
ROOT SpineBase
{
  OFFSET 0.000000 0.000000 0.000000
  CHANNELS 6 Xposition Yposition Zposition Zrotation Xrotation Yrotation
  JOINT SpineMid
  {
    OFFSET -0.000000 31.690941 0.000000
    CHANNELS 3 Zrotation Xrotation Yrotation
    JOINT SpineShoulder
    {
      OFFSET 0.114304 23.507463 -0.741871
      CHANNELS 3 Zrotation Xrotation Yrotation
      JOINT Neck
      {
        OFFSET 0.066773 7.767957 -0.546666
        CHANNELS 3 Zrotation Xrotation Yrotation
        JOINT Head
        {
          OFFSET -4.375561 13.430773 -0.592687
          CHANNELS 3 Zrotation Xrotation Yrotation
          End Site
          {
            OFFSET 0 0 0
          }
        }
      }
      JOINT ShoulderLeft
      {
        OFFSET -16.012225 -4.955148 7.978851
        CHANNELS 3 Zrotation Xrotation Yrotation
        JOINT ElbowLeft
        {
          OFFSET -3.948495 -27.339351 5.040520
          CHANNELS 3 Zrotation Xrotation Yrotation
          JOINT WristLeft
          {
            OFFSET 0.583609 -23.579621 -3.511348
            CHANNELS 3 Zrotation Xrotation Yrotation
            JOINT HandLeft
            {
              OFFSET -0.828071 -7.402386 -0.245730
              CHANNELS 3 Zrotation Xrotation Yrotation
              JOINT HandTipLeft
              {
                OFFSET 0.360679 -7.383090 -0.047496
                CHANNELS 3 Zrotation Xrotation Yrotation
                End Site
                {
                  OFFSET 0 0 0
                }
              }
              JOINT ThumbLeft
              {
                OFFSET 2.020889 -3.542656 -0.454538
                CHANNELS 3 Zrotation Xrotation Yrotation
                End Site
                {
                  OFFSET 0 0 0
                }
              }
            }
          }
        }
      }
      JOINT ShoulderRight
      {
        OFFSET 12.721852 -3.176493 -7.784539
        CHANNELS 3 Zrotation Xrotation Yrotation
        JOINT ElbowRight
        {
          OFFSET 8.073214 -27.262278 -3.661123
          CHANNELS 3 Zrotation Xrotation Yrotation
          JOINT WristRight
          {
            OFFSET 1.114005 -21.742254 -5.410268
            CHANNELS 3 Zrotation Xrotation Yrotation
            JOINT HandRight
            {
              OFFSET -0.466900 -6.948747 -0.964209
              CHANNELS 3 Zrotation Xrotation Yrotation
              JOINT HandTipRight
              {
                OFFSET 0.290492 -7.388258 -0.133907
                CHANNELS 3 Zrotation Xrotation Yrotation
                End Site
                {
                  OFFSET 0 0 0
                }
              }
              JOINT ThumbRight
              {
                OFFSET -3.663456 -1.744296 0.128836
                CHANNELS 3 Zrotation Xrotation Yrotation
                End Site
                {
                  OFFSET 0 0 0
                }
              }
            }
          }
        }
      }
    }
  }
  JOINT HipLeft
  {
    OFFSET -5.797856 -0.194767 -0.319755
    CHANNELS 3 Zrotation Xrotation Yrotation
    JOINT KneeLeft
    {
      OFFSET 3.062832 -35.931208 6.632806
      CHANNELS 3 Zrotation Xrotation Yrotation
      JOINT AnkleLeft
      {
        OFFSET 9.096037 -36.049819 11.068245
        CHANNELS 3 Zrotation Xrotation Yrotation
        JOINT FootLeft
        {
          OFFSET -1.974578 -8.012398 -4.355986
          CHANNELS 3 Zrotation Xrotation Yrotation
          End Site
          {
            OFFSET 0 0 0
          }
        }
      }
    }
  }
  JOINT HipRight
  {
    OFFSET 6.324725 1.582861 -6.060539
    CHANNELS 3 Zrotation Xrotation Yrotation
    JOINT KneeRight
    {
      OFFSET 8.768646 -36.176176 1.331572
      CHANNELS 3 Zrotation Xrotation Yrotation
      JOINT AnkleRight
      {
        OFFSET 5.198123 -35.390063 10.878373
        CHANNELS 3 Zrotation Xrotation Yrotation
        JOINT FootRight
        {
          OFFSET -2.241876 -8.159073 -1.962360
          CHANNELS 3 Zrotation Xrotation Yrotation
          End Site
          {
            OFFSET 0 0 0
          }
        }
      }
    }
  }
}
MOTION
Frames: 13
Frame Time: 0.033333
-27.264951 81.312637 331.530546 0.000000 0.000000 25.340420 -0.000000 -0.000000 -25.340420 -0.000000 0.000000 0.000000 -0.000000 0.000000 0.000000 0.000000 0.000000 0.000000 -0.000000 0.000000 0.000000 -0.000000 0.000000 0.000000 -0.000000 0.000000 0.000000 -0.000000 0.000000 0.000000 0.000000 0.000000 0.000000 0.000000 0.000000 0.000000 -0.000000 0.000000 0.000000 -0.000000 0.000000 0.000000 -0.000000 0.000000 0.000000 -0.000000 0.000000 0.000000 0.000000 0.000000 0.000000 0.000000 0.000000 0.000000 -0.000000 -0.000000 -25.340420 -0.000000 0.000000 0.000000 -0.000000 0.000000 0.000000 0.000000 0.000000 0.000000 -0.000000 -0.000000 -25.340420 -0.000000 0.000000 0.000000 -0.000000 0.000000 0.000000 0.000000 0.000000 0.000000
-27.268965 81.302902 331.445601 -0.008706 -0.046373 25.391567 0.027750 0.038160 -25.391580 -0.000000 0.000000 0.000000 -0.000000 0.000000 0.000000 0.000000 0.000000 0.000000 -0.000000 0.000000 0.000000 -0.000000 0.000000 0.000000 1.948205 -0.555925 0.006977 -1.339337 -0.935606 -0.062828 0.000000 0.000000 0.000000 0.000000 0.000000 0.000000 -0.000000 0.000000 0.000000 0.016541 -0.848676 -0.047565 -0.744382 -1.894902 0.327565 0.743572 2.739205 -0.304168 0.000000 0.000000 0.000000 0.000000 0.000000 0.000000 0.027750 0.038160 -25.391580 -0.000000 0.000000 0.000000 -0.000000 0.000000 0.000000 0.000000 0.000000 0.000000 0.027750 0.038160 -25.391580 -0.000000 0.000000 0.000000 -7.923302 25.465752 -3.178717 0.000000 0.000000 0.000000
-27.275274 81.294124 331.369159 -0.019680 -0.087093 25.422447 0.055163 0.070211 -25.422495 -0.000000 0.000000 0.000000 -0.000000 0.000000 0.000000 0.000000 0.000000 0.000000 -0.000000 0.000000 0.000000 1.003571 0.309378 -0.144413 1.985345 -1.300617 0.193497 -2.008645 -1.608147 -0.114824 0.000000 0.000000 0.000000 0.000000 0.000000 0.000000 -0.000000 0.000000 0.000000 0.023929 -1.397473 -0.077503 -1.260883 -3.067249 0.534602 1.280116 4.452225 -0.524266 0.000000 0.000000 0.000000 0.000000 0.000000 0.000000 0.055163 0.070211 -25.422495 -0.000000 0.000000 0.000000 -0.714160 -0.405610 0.485879 0.000000 0.000000 0.000000 0.055163 0.070211 -25.422495 -0.000000 0.000000 0.000000 -12.875612 40.770235 -3.377982 0.000000 0.000000 0.000000
-27.283878 81.286301 331.301222 -0.032923 -0.122143 25.433068 0.082187 0.096167 -25.433172 -0.000000 0.000000 0.000000 -0.000000 0.000000 0.000000 0.000000 0.000000 0.000000 -0.000000 0.000000 0.000000 1.157299 0.346951 -0.167144 1.923599 -1.656954 0.259412 -1.945228 -2.078870 -0.175682 0.000000 0.000000 0.000000 0.000000 0.000000 0.000000 -0.000000 0.000000 0.000000 0.022635 -1.645795 -0.089959 -1.565202 -3.528540 0.630978 1.844631 6.334009 -0.619740 0.000000 0.000000 0.000000 0.000000 0.000000 0.000000 0.082187 0.096167 -25.433172 -0.000000 0.000000 0.000000 -0.949951 -0.407392 0.613406 0.000000 0.000000 0.000000 0.082187 0.096167 -25.433172 -0.000000 0.000000 0.000000 -15.851310 48.617645 -2.771696 0.000000 0.000000 0.000000
-27.294777 81.279435 331.241789 -0.048434 -0.151509 25.423423 0.108787 0.116043 -25.423598 -0.000000 0.000000 0.000000 -0.000000 0.000000 0.000000 0.000000 0.000000 0.000000 -0.000000 0.000000 0.000000 1.082386 0.308058 -0.156374 1.113500 -1.815122 0.287795 -1.106761 -2.389057 -0.256976 0.000000 0.000000 0.000000 0.000000 0.000000 0.000000 -0.000000 0.000000 0.000000 0.012855 -1.593226 -0.084951 -1.664315 -3.280215 0.621199 1.970039 6.870515 -0.584311 0.000000 0.000000 0.000000 0.000000 0.000000 0.000000 0.108787 0.116043 -25.423598 -0.000000 0.000000 0.000000 -1.104594 -0.273655 0.664616 0.000000 0.000000 0.000000 0.108787 0.116043 -25.423598 -0.000000 0.000000 0.000000 -17.300085 52.147580 -2.314559 0.000000 0.000000 0.000000
-27.307971 81.273526 331.190860 -0.066214 -0.175177 25.393485 0.134938 0.129857 -25.393739 -0.000000 0.000000 0.000000 -0.000000 0.000000 0.000000 0.000000 0.000000 0.000000 -0.000000 0.000000 0.000000 -0.000000 0.000000 0.000000 0.309508 -1.576019 0.170425 0.531325 -2.564860 -0.362495 0.000000 0.000000 0.000000 0.000000 0.000000 0.000000 -0.000000 0.000000 0.000000 -0.005483 -1.239323 -0.062364 -1.554979 -2.306434 0.504418 1.839589 6.634417 -0.409532 0.000000 0.000000 0.000000 0.000000 0.000000 0.000000 0.134938 0.129857 -25.393739 -0.000000 0.000000 0.000000 -1.177738 -0.004566 0.639772 0.000000 0.000000 0.000000 0.134938 0.129857 -25.393739 -0.000000 0.000000 0.000000 -17.379708 52.752088 -2.338686 0.000000 0.000000 0.000000
-27.342240 81.267868 331.157869 -0.112318 -0.192121 25.296039 0.183641 0.125706 -25.296429 -0.000000 0.000000 0.000000 -0.000000 0.000000 0.000000 0.000000 0.000000 0.000000 -0.000000 0.000000 0.000000 1.419549 0.054931 -0.210643 -4.347088 -2.143883 0.481659 3.680827 -2.032345 -0.586281 0.000000 0.000000 0.000000 0.000000 0.000000 0.000000 -0.000000 0.000000 0.000000 -0.215336 -1.735903 -0.038778 -0.929441 0.116553 0.318737 1.533139 5.375256 -0.165996 0.000000 0.000000 0.000000 0.000000 0.000000 0.000000 0.183641 0.125706 -25.296429 -0.000000 0.000000 0.000000 -1.318410 0.752249 0.536620 0.000000 0.000000 0.000000 0.183641 0.125706 -25.296429 -0.000000 0.000000 0.000000 -15.275240 48.563556 -3.121866 0.000000 0.000000 0.000000
-27.384064 81.267282 331.135582 -0.155639 -0.200815 25.228235 0.226386 0.115323 -25.228736 -0.000000 0.000000 0.000000 -0.000000 0.000000 0.000000 0.000000 0.000000 0.000000 -0.000000 0.000000 0.000000 -0.000000 0.000000 0.000000 -5.597325 -1.923146 0.305587 6.108589 -2.264304 -0.696254 0.000000 0.000000 0.000000 0.000000 0.000000 0.000000 -0.000000 0.000000 0.000000 -0.000000 0.000000 0.000000 -0.655662 1.562834 -0.005081 1.198379 3.669482 0.208778 0.000000 0.000000 0.000000 0.000000 0.000000 0.000000 0.226386 0.115323 -25.228736 -0.743284 -0.294295 -0.304634 -0.315510 1.627601 0.558299 0.000000 0.000000 0.000000 0.226386 0.115323 -25.228736 -0.000000 0.000000 0.000000 -11.038784 37.698922 -3.882245 0.000000 0.000000 0.000000
-27.406682 81.259684 331.112715 -0.175882 -0.200733 25.161011 0.244539 0.106907 -25.161547 -0.000000 0.000000 0.000000 -0.000000 0.000000 0.000000 0.000000 0.000000 0.000000 0.090832 0.943524 -0.120470 -1.533856 -1.853486 0.276926 -9.142632 0.003865 0.331202 8.902225 -2.596134 -0.713536 0.000000 0.000000 0.000000 0.000000 0.000000 0.000000 -0.000000 0.000000 0.000000 -0.027163 1.342083 0.075625 0.108902 5.425581 -0.539834 -0.074364 0.865199 0.757950 0.000000 0.000000 0.000000 0.000000 0.000000 0.000000 0.244539 0.106907 -25.161547 -0.740755 -0.315773 -0.309394 -0.147699 2.330966 0.305159 0.000000 0.000000 0.000000 0.244539 0.106907 -25.161547 -0.000000 0.000000 0.000000 -6.001572 22.294962 -3.366912 0.000000 0.000000 0.000000
-27.366449 81.259066 331.053250 -0.123803 -0.174248 25.063443 0.185961 0.105395 -25.063803 -0.000000 0.000000 0.000000 -0.000000 0.000000 0.000000 0.000000 0.000000 0.000000 0.206219 1.341645 -0.158554 -4.271738 -2.885664 0.573332 -13.325089 1.491102 0.420314 13.129919 -1.651400 -0.694661 0.000000 0.000000 0.000000 0.000000 0.000000 0.000000 -0.000000 0.000000 0.000000 0.092877 4.333498 0.193684 1.082859 8.728815 -1.272452 -1.598677 -1.600956 1.294177 0.000000 0.000000 0.000000 0.000000 0.000000 0.000000 0.185961 0.105395 -25.063803 -0.659933 -0.382136 -0.301369 0.111816 2.547795 0.070666 0.000000 0.000000 0.000000 0.185961 0.105395 -25.063803 -0.000000 0.000000 0.000000 -2.590911 11.409598 -2.196600 0.000000 0.000000 0.000000
-27.276325 81.270758 330.982961 -0.015673 -0.138103 24.969805 0.072507 0.118578 -24.969899 -0.000000 0.000000 0.000000 -0.000000 0.000000 0.000000 0.000000 0.000000 0.000000 -0.206560 1.237638 -0.214977 -8.823446 -3.084313 1.185851 -13.272491 4.084842 0.193853 13.988192 0.224467 -0.036030 0.000000 0.000000 0.000000 0.000000 0.000000 0.000000 1.333509 0.429527 -0.056666 -0.980853 8.885182 0.402097 2.195479 11.188702 -2.160172 -3.329209 -5.263241 1.659672 0.000000 0.000000 0.000000 0.000000 0.000000 0.000000 0.072507 0.118578 -24.969899 -0.000000 0.000000 0.000000 -0.028877 1.552450 -0.363816 0.000000 0.000000 0.000000 0.072507 0.118578 -24.969899 -0.000000 0.000000 0.000000 -1.388902 7.734117 -1.667605 0.000000 0.000000 0.000000
-27.161456 81.289880 330.918960 0.115819 -0.098506 24.895475 -0.063589 0.138108 -24.895299 -0.000000 0.000000 0.000000 -0.000000 0.000000 0.000000 0.000000 0.000000 0.000000 -1.005284 0.790949 -0.292645 -14.777285 -2.834556 2.133404 -13.207909 6.297876 -0.024118 12.823099 2.756061 0.819689 0.000000 0.000000 0.000000 0.000000 0.000000 0.000000 2.789922 1.140764 -0.064145 -2.118539 15.403236 0.588978 2.580857 9.773158 -2.764548 -5.856124 -5.142480 1.560432 0.000000 0.000000 0.000000 0.000000 0.000000 0.000000 -0.063589 0.138108 -24.895299 -0.561426 -0.510418 -0.303623 1.214456 1.507137 -0.314255 0.000000 0.000000 0.000000 -0.063589 0.138108 -24.895299 -0.000000 0.000000 0.000000 -3.837462 17.500173 -3.184064 0.000000 0.000000 0.000000
-27.048940 81.308459 330.870570 0.219426 -0.069732 24.858973 -0.169781 0.155514 -24.858609 -0.000000 0.000000 0.000000 -0.000000 0.000000 0.000000 0.000000 0.000000 0.000000 -1.881414 -0.014704 -0.344197 -22.413661 -1.657768 3.652108 -12.483907 7.974312 -0.457595 12.970647 5.026796 2.013257 0.000000 0.000000 0.000000 0.000000 0.000000 0.000000 4.118597 1.772525 -0.090975 -2.249292 23.163066 0.417367 1.480244 6.928042 -3.255871 -6.729634 -2.784790 1.767131 0.000000 0.000000 0.000000 0.000000 0.000000 0.000000 -0.169781 0.155514 -24.858609 -0.586875 -0.556510 -0.323391 1.464269 0.878109 -0.250455 0.000000 0.000000 0.000000 -0.169781 0.155514 -24.858609 -0.000000 0.000000 0.000000 -6.736166 26.622436 -3.942241 0.000000 0.000000 0.000000
